<svg xmlns="http://www.w3.org/2000/svg" viewBox="0 0 128 128" width="50" height="50">
  <path fill="#F7A80D" d="M38.089 77.466l-11.4 4.896 10.559 4.514 12.241-4.514-11.4-4.896zm-17.138 6.12l-.382 22.034 16.679 7.345V90.089l-16.297-6.503zm34.276 0l-15.073 5.739V110.9l15.073-6.121V83.586zm17.979-68.551L61.73 19.931l10.635 4.515 12.241-4.515-11.4-4.896zm-15.914 6.503v22.034l14.231 4.132.459-20.046-14.69-6.12zm31.828 1.224L75.654 28.5v21.652l13.466-6.121V22.762zM19.306 46.047L6.268 42.651l10.558 6.817 13.772-6.817-11.292-6.817zm-6.817 8.041l.535 23.486 15.119 11.673.535-26.957-16.189-8.202zm34.442 0l-13.921 9.426v27.492l13.921-11.292V54.088zM52.089 42.651l-13.389 6.817 11.674 6.817 14.69-6.817-12.975-6.817zm-11.293 10.04v22.034l12.975 5.738V59.656l-12.975-6.965zm32.21 1.253l-15.302 5.738v20.046l15.302-5.738V53.944zM52.089 8.041L38.7 15.71l11.674 6.817 14.69-6.817-12.975-7.669zm-11.293 10.041v22.034l12.975 5.739V24.847L40.796 18.082zm32.21 1.253l-15.302 5.738v20.047l15.302-5.739V19.376zM19.306 77.466L6.268 74.07l10.558 6.817 13.772-6.817-11.292-6.817zm-6.817 8.041l.535 23.486 15.119 11.673.535-26.957-16.189-8.202zm34.442 0l-13.921 9.426v27.492l13.921-11.292V85.507z"/>
</svg> 