<svg xmlns="http://www.w3.org/2000/svg" viewBox="0 0 128 128" width="50" height="50">
  <path fill-rule="evenodd" clip-rule="evenodd" fill="#3A4D54" d="M73.8 50.8h11.3v11.5h5.7c2.6 0 5.3-.5 7.8-1.3 1.2-.4 2.6-1 3.8-1.7-1.6-2.1-2.4-4.7-2.6-7.3-.3-3.5.4-8.1 2.8-10.8l1.2-1.4 1.4 1.1c3.6 2.9 6.5 6.8 7.1 11.4 4.3-1.3 9.3-1 13.1 1.2l1.5.9-.8 1.6c-3.2 6.2-9.9 8.2-16.4 7.8-9.8 24.3-31 35.8-56.8 35.8-13.3 0-25.5-5-32.5-16.8l-.1-.2-1-2.1c-2.4-5.2-3.1-10.9-2.6-16.6l.2-1.7h9.6V50.8h11.3V39.6h22.5V28.3h13.5v22.5z"/>
  <path fill="#00AADA" d="M110.4 55.1c.8-5.9-3.6-10.5-6.4-12.7-3.1 3.6-3.6 13.2 1.3 17.2-2.4 2.1-7.4 4.1-12.5 4.1H1.8c-.6 3.9-.9 7.8-.6 11.4 1.1 15.7 9.7 29.3 24.2 36.9l.7.4c4.5 2.3 9.8 3.9 15.8 4.5C58.6 119.7 81 99.9 85.3 81.7c1.3.2 2.8.3 4.4.3 5.5 0 9.9-1.4 12.3-2.5 1.7-.8 3.3-1.8 4.7-2.9-2.5-1.8-6.1-6.5-4.3-13.1z"/>
  <path fill="#28B8EB" d="M110.4 55.1c.8-5.9-3.6-10.5-6.4-12.7-3.1 3.6-3.6 13.2 1.3 17.2-2.4 2.1-7.4 4.1-12.5 4.1h-75c-.5 5.5.1 10.5 1.6 15 1.5-.5 3.2-.8 5.1-.8 7.3 0 13.3 5.9 13.3 13.3 0 1.7-.3 3.3-.9 4.8 11-11.6 32.7-10.5 45.9 0-.6-1.5-.9-3.1-.9-4.8 0-7.3 5.9-13.3 13.3-13.3 1.9 0 3.6.3 5.1.8 1.6-4.5 2.3-9.5 1.6-15z"/>
  <path fill="#00AADA" d="M33.1 55.1h-10v-11h10v11zm13.4 0h-11v-11h11v11zm13.5 0h-11v-11h11v11zm13.4 0h-11v-11h11v11zm13.4 0h-11v-11h11v11zM19.7 44.2h-10v-11h10v11zm13.4 0h-11v-11h11v11zm13.5 0h-11v-11h11v11zm13.4 0h-11v-11h11v11zm13.4 0h-11v-11h11v11z"/>
  <path fill="#03C4EB" d="M46.5 44.2h-11v-11h11v11zm13.5 0h-11v-11h11v11zm13.4 0h-11v-11h11v11z"/>
  <path fill="#00ACD3" d="M86.8 44.2h-11v-11h11v11z"/>
  <path fill="#20D2F3" d="M33.1 33.2h-10v-11h10v11z"/>
  <path fill="#00ACD3" d="M46.5 33.2h-11v-11h11v11zm13.5 0h-11v-11h11v11z"/>
  <path fill="#20D2F3" d="M73.4 33.2h-11v-11h11v11z"/>
  <path fill="#00ACD3" d="M33.1 22.2h-10v-11h10v11z"/>
  <path fill="#037BC0" d="M46.5 22.2h-11v-11h11v11z"/>
  <path fill="#00ACD3" d="M59.9 22.2h-11v-11h11v11z"/>
  <path fill-rule="evenodd" clip-rule="evenodd" fill="#00ACD3" d="M113.3 26.1l-.2-.9c-.6-2.8-2-5.1-4.4-7l-.9-.7-.7.9c-1.3 1.7-1.8 4.5-1.6 6.6.1 1 .4 2.1.8 2.8.5.9.4 1.1-.5 1.6-.6.3-1.7.6-2.5.6h-21.5V37h21.5c2.1 0 4.3-.4 5.9-1.4 1.7-1 3.2-2.5 4.1-4.1.8-1.4.8-1.5.8-3.1 0-.8-.1-1.7-.2-2.3z"/>
  <path fill-rule="evenodd" clip-rule="evenodd" fill="#E9F1FA" d="M50.1 80.8c-1.3 0-2.3-1-2.3-2.3 0-1.3 1-2.3 2.3-2.3 1.3 0 2.3 1 2.3 2.3 0 1.3-1 2.3-2.3 2.3zm0-4.2c-1.1 0-1.9.8-1.9 1.9 0 1.1.8 1.9 1.9 1.9 1.1 0 1.9-.8 1.9-1.9 0-1.1-.8-1.9-1.9-1.9z"/>
  <path fill-rule="evenodd" clip-rule="evenodd" fill="#E9F1FA" d="M88.9 80.8c-1.3 0-2.3-1-2.3-2.3 0-1.3 1-2.3 2.3-2.3 1.3 0 2.3 1 2.3 2.3 0 1.3-1 2.3-2.3 2.3zm0-4.2c-1.1 0-1.9.8-1.9 1.9 0 1.1.8 1.9 1.9 1.9 1.1 0 1.9-.8 1.9-1.9 0-1.1-.8-1.9-1.9-1.9z"/>
  <path fill="#D4EEF1" d="M24.9 78.5c.2 1.7.5 3.3 1 4.9.5-.3 1.1-.5 1.7-.5 1.9 0 3.5 1.6 3.5 3.5 0 1.9-1.6 3.5-3.5 3.5-1.9 0-3.5-1.6-3.5-3.5 0-.7.2-1.3.5-1.9-1.6-3.1-2.6-6.6-3-10.4-2.4-20.3 8.8-35.5 29.1-43.9-3.2 3.9-5.8 8.5-7.5 13.5-3.2 9.7-3.2 19.6-.2 29.3.5 1.5 1.1 3 1.9 4.5z"/>
</svg> 