<svg xmlns="http://www.w3.org/2000/svg" viewBox="0 0 128 128" width="50" height="50">
  <path fill="#6181B6" d="M64 33.039C30.26 33.039 2.906 46.901 2.906 64S30.26 94.961 64 94.961 125.094 81.099 125.094 64 97.74 33.039 64 33.039zM48.103 70.032c-1.458 1.364-3.077 1.927-4.86 2.507-1.783.581-4.052.461-6.811.461h-6.253l-1.733 10h-7.301l6.515-34h14.04c4.224 0 7.305 1.215 9.242 3.432 1.937 2.217 2.519 5.364 1.747 9.337-.319 1.637-.856 3.159-1.614 4.515a15.118 15.118 0 01-2.972 3.748zm31.252 12.968h-7.045l.845-4.73h-8.116l-2.523 4.73h-7.045L64 57.149h10.143L73.857 83zm17.371-19.988c-.33 1.637-.875 3.159-1.633 4.515a15.148 15.148 0 01-2.977 3.748c-1.458 1.364-3.078 1.927-4.86 2.507-1.782.581-4.053.461-6.812.461h-6.253l-1.732 10h-7.301l6.514-34h14.041c4.224 0 7.305 1.215 9.241 3.432 1.935 2.217 2.518 5.364 1.772 9.337z"/>
  <path fill="#FFF" d="M41.916 53.856c1.743 0 2.954.327 3.633.979.68.651.979 1.672.896 3.014a10.246 10.246 0 01-.585 2.487 8.808 8.808 0 01-1.147 2.094c-.827 1.138-1.903 1.946-3.225 2.419-1.323.473-2.921.71-4.785.71h-6.273l3.014-11.703h8.472zM72.498 61.743l2.722-11.575h2.093l-6.634 14.078h-2.093L72.498 61.743zm14.446-7.887c1.743 0 2.954.327 3.633.979.68.651.979 1.672.896 3.014a10.246 10.246 0 01-.585 2.487 8.808 8.808 0 01-1.147 2.094c-.827 1.138-1.903 1.946-3.225 2.419-1.323.473-2.921.71-4.785.71h-6.273l3.014-11.703h8.472z"/>
  <path fill="#6181B6" d="M56.192 70.978h-2.691l1.397-3.999h3.8l-2.506 3.999zM68.711 53h-7.82l-.248.932-2.47 9.288-1.09 4.078h2.691l.248-.932 2.47-9.288 1.09-4.078h5.451l-.322 1.213-2.523 9.735-.793 3.058h2.691l.793-3.058 2.523-9.735L68.711 53z"/>
</svg> 