<svg xmlns="http://www.w3.org/2000/svg" viewBox="0 0 128 128" width="50" height="50">
  <path fill="#95BF47" d="M64.85 4.015c-.033-.044-.073-.085-.109-.128-.036.043-.076.084-.109.128-.327.434-7.189 9.511-10.251 25.341-7.332 1.865-12.819 3.255-12.819 3.255s-8.585 2.691-9.55 8.22c-.716 4.106.419 7.064.641 7.637-.641 1.926-1.594 5.738-1.594 10.561 0 19.785 13.597 41.039 35.553 41.039 21.949 0 35.553-21.254 35.553-41.039 0-4.823-.953-8.635-1.594-10.561.223-.573 1.357-3.531.641-7.637-.965-5.529-9.55-8.22-9.55-8.22s-5.487-1.39-12.819-3.255c-3.053-15.83-9.924-24.907-10.251-25.341h-.001z"/>
  <path fill="#5E8E3E" d="M64.85 4.015c-.033-.044-.073-.085-.109-.128-.036.043-.076.084-.109.128-.327.434-7.189 9.511-10.251 25.341 7.955-2.022 12.855-3.268 12.855-3.268s-2.637-18.535-2.386-22.073z"/>
  <path fill="#FFF" d="M59.347 32.549s-3.852.976-8.503 2.162c-1.851 9.588-6.609 18.519-13.992 18.519-1.027 0-2.024-.147-2.976-.429.599 1.937 1.268 3.942 2.006 6.001 5.273 1.686 9.325 5.271 11.702 10.13 1.768 3.611 2.596 7.77 2.596 12.25 0 3.758-.434 7.366-1.293 10.789 4.073 1.222 8.516 1.869 13.11 1.869 4.594 0 9.037-.647 13.11-1.869-.859-3.422-1.293-7.03-1.293-10.789 0-4.48.828-8.639 2.596-12.25 2.377-4.859 6.429-8.444 11.702-10.13.738-2.059 1.407-4.064 2.006-6.001-.952.282-1.949.429-2.976.429-7.383 0-12.141-8.931-13.992-18.519-4.651-1.185-8.503-2.162-8.503-2.162s-2.637-18.535-2.386-22.073c-1.503.382-3.012.764-4.503 1.146-1.491-.382-3-.764-4.503-1.146.251 3.538-2.386 22.073-2.386 22.073z"/>
  <path fill="#95BF47" d="M41.5 29.647s-8.585 2.691-9.55 8.22c-.716 4.106.419 7.064.641 7.637-.641 1.926-1.594 5.738-1.594 10.561 0 19.785 13.597 41.039 35.553 41.039 21.949 0 35.553-21.254 35.553-41.039 0-4.823-.953-8.635-1.594-10.561.223-.573 1.357-3.531.641-7.637-.965-5.529-9.55-8.22-9.55-8.22s-19.048-4.837-25.05-6.369c-6.002 1.532-25.05 6.369-25.05 6.369z"/>
</svg> 