<svg xmlns="http://www.w3.org/2000/svg" viewBox="0 0 128 128" width="50" height="50">
  <path fill="#444" d="M64.094 126.224c34.275-.052 62.021-27.933 62.021-62.325 0-33.833-27.618-61.697-60.613-62.286C30.85.995 1.894 29.113 1.885 63.21c-.01 35.079 27.612 63.064 62.209 63.014zM63.993 4.63c32.907-.011 59.126 26.725 59.116 60.28-.011 31.679-26.925 58.18-59.092 58.187-32.771.007-59.125-26.563-59.124-59.608.002-32.193 26.766-58.848 59.1-58.859zM39.157 35.896c.538 1.793-.968 2.417-2.569 2.542-1.685.13-3.369.257-5.325.406 6.456 19.234 12.815 38.183 19.325 57.573.464-.759.655-.973.739-1.223 3.574-10.682 7.168-21.357 10.651-32.069.318-.977.16-2.271-.188-3.275-1.843-5.32-4.051-10.524-5.667-15.908-1.105-3.686-2.571-6.071-6.928-5.644-.742.073-1.648-1.524-2.479-2.349 1.005-.6 2.003-1.704 3.017-1.719a849.593 849.593 0 0126.618.008c1.018.017 2.016 1.15 3.021 1.765-.88.804-1.639 2.01-2.668 2.321-1.651.498-3.482.404-5.458.58 6.463 19.225 12.793 38.057 19.349 57.56 2.931-9.736 5.658-18.676 8.31-27.639 2.366-8.001.956-15.473-3.322-22.52-1.286-2.119-2.866-4.175-3.595-6.486-.828-2.629-1.516-5.622-1.077-8.259.745-4.469 4.174-6.688 8.814-7.113C74.333 31.413 74.9 32.453 76.426 35.031c-3.872.74-6.969 2.457-7.312 6.938-.162 2.115.517 4.421 1.229 6.488 1.172 3.39 2.655 6.684 4.395 9.82 1.692 3.041 3.96 5.723 5.991 8.64-.081-1.375-.084-2.102-.235-2.77-2.457-10.911-4.995-21.802-7.294-32.747-.845-4.021-3.818-6.104-7.839-6.113-2.818-.006-4.688.848-7.3 4.129-.548-.952-1.098-1.901-1.847-3.2 1.846-.256 3.317-.376 4.734-.678 3.892-.829 8.425-.075 11.361-3.628.414-.5 2.264-.57 2.987-.143 5.236 3.098 9.657 7.122 13.437 11.888 2.791 3.513 4.7 7.856 6.957 11.839.938 1.652 1.637 3.459 2.47 5.251-1.231-2.17-2.542-4.261-3.681-6.497-3.766-7.401-7.634-14.754-11.189-22.24-2.607-5.478-6.59-9.395-12.39-11.216-1.43-.449-2.589-1.76-3.888-2.672.855-.496 1.711-.993 2.567-1.49 21.56 9.382 35.283 29.553 35.552 50.071.151 11.534-3.364 22.156-9.734 32.008-6.379 9.864-14.81 17.561-25.328 22.587-10.443 4.983-21.424 6.924-32.973 5.737-11.135-1.142-21.447-4.803-30.621-11.513-10.114-7.404-17.608-16.977-21.801-28.907-4.382-12.458-5.025-25.209-1.5-38.002 3.22-11.702 9.42-21.856 18.136-30.283 8.47-8.194 18.376-13.971 29.75-17.322.233-.07.494-.008.957-.008z"/>
</svg> 