<svg xmlns="http://www.w3.org/2000/svg" width="600" height="400" viewBox="0 0 600 400" fill="none">
  <style>
    .primary { fill: #4361ee; }
    .secondary { fill: #3a0ca3; }
    .accent { fill: #4cc9f0; }
    .light { fill: #f5f7fa; }
    .dark { fill: #333333; }
  </style>
  
  <!-- Background Elements -->
  <circle cx="300" cy="200" r="150" class="light" opacity="0.3"/>
  <circle cx="150" cy="100" r="20" class="accent" opacity="0.5"/>
  <circle cx="450" cy="300" r="30" class="primary" opacity="0.5"/>
  <circle cx="500" cy="100" r="15" class="secondary" opacity="0.5"/>
  <circle cx="100" cy="300" r="25" class="primary" opacity="0.5"/>
  
  <!-- Computer/Device -->
  <rect x="200" y="120" width="200" height="140" rx="5" class="dark"/>
  <rect x="210" y="130" width="180" height="110" class="light"/>
  
  <!-- Screen Content -->
  <rect x="220" y="140" width="160" height="20" rx="3" class="primary" opacity="0.7"/>
  <rect x="220" y="170" width="100" height="10" rx="3" class="dark" opacity="0.3"/>
  <rect x="220" y="190" width="140" height="10" rx="3" class="dark" opacity="0.3"/>
  <rect x="220" y="210" width="80" height="10" rx="3" class="dark" opacity="0.3"/>
  
  <!-- Stand -->
  <path d="M280 260L260 290H340L320 260H280Z" class="dark"/>
  <rect x="290" y="290" width="20" height="10" class="dark"/>
  
  <!-- Code Elements -->
  <rect x="380" y="150" width="100" height="100" rx="5" class="accent" opacity="0.2"/>
  <rect x="390" y="160" width="80" height="10" rx="3" class="accent"/>
  <rect x="390" y="180" width="60" height="10" rx="3" class="accent" opacity="0.7"/>
  <rect x="390" y="200" width="70" height="10" rx="3" class="accent" opacity="0.7"/>
  <rect x="390" y="220" width="50" height="10" rx="3" class="accent" opacity="0.7"/>
  
  <rect x="120" y="150" width="100" height="100" rx="5" class="primary" opacity="0.2"/>
  <rect x="130" y="160" width="80" height="10" rx="3" class="primary"/>
  <rect x="130" y="180" width="60" height="10" rx="3" class="primary" opacity="0.7"/>
  <rect x="130" y="200" width="70" height="10" rx="3" class="primary" opacity="0.7"/>
  <rect x="130" y="220" width="50" height="10" rx="3" class="primary" opacity="0.7"/>
  
  <!-- Decorative Elements -->
  <circle cx="450" cy="120" r="10" class="secondary"/>
  <circle cx="150" cy="220" r="10" class="primary"/>
  <circle cx="400" cy="280" r="15" class="accent"/>
  <circle cx="200" cy="280" r="15" class="secondary"/>
</svg> 